<?xml version="1.0" encoding="utf-8" ?>
<svg xmlns="http://www.w3.org/2000/svg" xmlns:xlink="http://www.w3.org/1999/xlink" width="2000" height="1500">
	<path fill="#230022" fill-opacity="0.12156863" d="M1221.14 820.436L1223.08 819.084C1227.94 825.18 1228.7 839.19 1229.98 846.889L1228.84 848.214L1225.6 846.615L1224.74 846.924C1223.93 841.741 1223.71 836.46 1223.36 831.229L1221.14 820.436Z"/>
	<path fill="#230022" fill-opacity="0.11372549" d="M1052.91 491.308C1060.66 492.459 1070.04 495.576 1076.24 500.465C1068.72 501.376 1050.6 495.741 1041.78 494.21C1045.34 490.62 1048.19 491.461 1052.91 491.308Z"/>
	<path fill="#430141" fill-opacity="0.019607844" d="M1047.98 818.42C1057.9 818.781 1068.05 824.146 1077.33 823.737C1080.6 825.011 1085.3 826.282 1087.33 829.333C1087.71 830.848 1088.67 832.325 1089.39 833.717L1086.87 834.008C1075.23 826.895 1060.85 822.855 1047.98 818.42Z"/>
	<path fill="#430141" fill-opacity="0.043137256" d="M788.791 1079.5C802.674 1084.76 823.209 1087.9 834.462 1097.04C820.731 1094.6 798.48 1090.26 788.791 1079.5Z"/>
	<path d="M879.629 542.023L880.869 543.512C876.142 562.652 869.105 581.426 868.772 601.281L868.15 600.606C864.451 586.284 872.368 576.862 873.044 563.26L870.353 560.813C872.827 553.934 875.42 548.053 879.629 542.023Z"/>
	<path fill="#230022" fill-opacity="0.086274512" d="M1229.98 846.889C1230.83 852.804 1232.24 858.947 1232.22 864.927C1232.19 873.077 1230.6 881.013 1230.76 889.135C1229.9 886.744 1228.84 885.881 1226.84 884.362C1227.75 871.139 1226.64 859.705 1225.6 846.615L1228.84 848.214L1229.98 846.889Z"/>
	<defs>
		<linearGradient id="gradient_0" gradientUnits="userSpaceOnUse" x1="1135.0258" y1="569.83673" x2="1129.849" y2="570.74835">
			<stop offset="0" stop-color="#270126" stop-opacity="0.11372549"/>
			<stop offset="1" stop-color="#260125" stop-opacity="0.14509805"/>
		</linearGradient>
	</defs>
	<path fill="url(#gradient_0)" d="M1128.12 546.463C1129.54 548.837 1130.3 550.288 1132.6 551.834C1133.8 552.643 1134 553.899 1134.33 555.207C1134.77 559.503 1134.94 562.02 1137.76 565.533C1137.67 570.837 1137.91 576.415 1137.32 581.674C1136.55 584.722 1135.91 587.514 1135.85 590.667L1135.4 591.564C1125.69 578.467 1130.59 562.742 1128.33 547.82L1128.12 546.463Z"/>
	<path fill="#7940FF" d="M1209.48 822.127C1208.73 817.765 1207.97 812.931 1207.9 808.491C1207.82 803.102 1209.77 799.533 1213.37 795.717C1216.45 803.47 1219.83 812.163 1221.14 820.436L1223.36 831.229C1221.95 834.005 1220.48 836.602 1218.73 839.177C1217.84 831.792 1217.27 823.344 1214.35 816.472C1213.65 814.82 1213.68 814.828 1212.08 814.152C1210.26 816.54 1210 819.256 1209.48 822.127Z"/>
	<defs>
		<linearGradient id="gradient_1" gradientUnits="userSpaceOnUse" x1="1221.6439" y1="910.6214" x2="1226.407" y2="911.84613">
			<stop offset="0" stop-color="#280127" stop-opacity="0.098039217"/>
			<stop offset="1" stop-color="#270026" stop-opacity="0.13725491"/>
		</linearGradient>
	</defs>
	<path fill="url(#gradient_1)" d="M1226.84 884.362C1228.84 885.881 1229.9 886.744 1230.76 889.135C1231.03 903.628 1227.9 920.878 1221.75 934.099C1216.83 944.656 1210.41 952.157 1209.35 964.132C1208.76 960.647 1208.64 957.148 1208.45 953.624C1221.26 927.654 1223.5 912.233 1226.84 884.362Z"/>
	<path fill="#430141" fill-opacity="0.31764707" d="M814.401 934.443L816.154 934.218C823.891 940.923 823.973 961.195 824.675 970.897C825.055 976.162 826.145 981.635 823.687 986.529C814.3 973.566 814.327 950.096 814.401 934.443Z"/>
	<path d="M870.353 560.813L873.044 563.26C872.368 576.862 864.451 586.284 868.15 600.606L868.772 601.281C869.078 608.759 870.295 617.801 867.881 624.953L867.416 625.169C864.513 616.843 863.071 607.936 861.957 599.212C861.542 590.537 860.853 580.088 862.822 571.583C866.411 568.399 868.32 565.055 870.353 560.813Z"/>
	<path fill="#430141" d="M897.455 440.75C912.417 430.531 941.927 425.764 960.062 424.79C952.424 429.407 944.041 431.286 935.444 433.269C920.862 439.761 905.785 445.34 891.484 452.423C893.937 448.578 896.014 445.113 897.455 440.75Z"/>
	<path fill="#430141" fill-opacity="0.039215688" d="M849.413 766.283C871.63 777.529 900.896 790.18 925.287 795.632C938.227 798.525 951.562 800.071 964.65 802.197Q1002.6 808.371 1040.47 815.039C1053.01 817.339 1065.81 817.787 1077.33 823.737C1068.05 824.146 1057.9 818.781 1047.98 818.42C1044.14 819.178 1039.38 818.991 1035.48 818.506C1027.94 817.566 1020.68 814.616 1013.18 813.461L950.848 803.277C938.002 801.071 924.821 799.513 912.437 795.371L915.155 795.665C894.007 787.475 864.17 786.063 849.413 766.283Z"/>
	<path fill="#430141" d="M1054.41 425.53C1093.74 427.105 1134.55 441.535 1171.1 455.158L1168.19 467.175C1148.03 449.83 1116.99 450.42 1093.47 440.009C1100.88 440.944 1108.27 442.96 1115.7 444.046C1096.49 432.455 1074.07 434.571 1054.41 425.53Z"/>
	<path fill="#9C008E" d="M891.484 452.423C905.785 445.34 920.862 439.761 935.444 433.269L937.99 436.691C922.957 440.653 907.53 444.534 895.201 454.476C908.818 449.891 932.644 439.496 946.322 441.281C921.5 448.037 897.815 454.402 875.84 468.23C863.567 470.602 853.513 483.383 843.4 490.078C847.59 476.718 860.418 474.526 860.352 460.165C872.394 452.631 884.436 446.424 897.455 440.75C896.014 445.113 893.937 448.578 891.484 452.423Z"/>
	<path fill="#430141" d="M937.99 436.691C966.05 427.278 1001.17 425.17 1030.33 429.524C1027.43 430.327 1025.38 430.247 1023.73 432.931L1024.28 437.578C997.89 435.92 972.518 439.687 946.322 441.281C932.644 439.496 908.818 449.891 895.201 454.476C907.53 444.534 922.957 440.653 937.99 436.691Z"/>
	<path fill="#CF00B8" d="M960.062 424.79C986.225 420.873 1012.08 421.751 1038.4 423.547C1042.94 423.857 1050.45 423.61 1054.41 425.53C1074.07 434.571 1096.49 432.455 1115.7 444.046C1108.27 442.96 1100.88 440.944 1093.47 440.009C1080.81 434.272 1044.87 430.458 1030.33 429.524C1001.17 425.17 966.05 427.278 937.99 436.691L935.444 433.269C944.041 431.286 952.424 429.407 960.062 424.79Z"/>
	<path fill="#230022" fill-opacity="0.13333334" d="M883.94 535.625C889.276 531.945 894.035 526.294 898.705 521.743C907.056 513.605 916.119 506.7 926.308 501.016C940.713 492.981 950.18 494.647 965.662 492.503C974.667 491.256 983.486 488.734 992.505 487.428C1011.79 484.638 1034.16 485.944 1052.91 491.308C1048.19 491.461 1045.34 490.62 1041.78 494.21C1037.58 496.865 1006.91 491.603 998.539 491.923C977.35 492.732 955.837 496.472 936.285 505.016C924.432 510.195 909.963 517.824 900.14 526.203C893.542 531.832 887.819 538.287 880.869 543.512L879.629 542.023C880.64 539.237 881.825 537.685 883.94 535.625Z"/>
	<path d="M1193.1 991.267C1181.98 1027.9 1134.73 1058.09 1102.44 1075.36C1082.51 1086.02 1055.64 1097.71 1033.8 1103.32C986.944 1115.36 887.185 1116.22 841.276 1102.23C838.453 1101.37 837.444 1098.06 834.462 1097.04C841.269 1097.12 849.136 1100.55 855.922 1101.83C864.257 1103.39 872.911 1103.91 881.33 1105C929.278 1111.2 979.024 1110.86 1026.37 1100.48C1078.05 1089.15 1153.36 1052.8 1182.58 1007.09C1186.78 1002.45 1189.28 996.319 1193.1 991.267Z"/>
	<path fill="#E0B0FE" d="M797.865 531.225C803.81 518.435 811.5 507.126 820.302 496.167L820.879 504.544C818.168 509.261 816.23 513.56 814.754 518.801C808.708 533.314 800.968 548.586 800.899 564.57L800.886 565.77C800.885 566.01 800.891 566.25 800.893 566.49C796.605 586.355 794.316 606.656 796.904 626.93L795.801 626.667C795.992 630.255 796.227 633.388 795.294 636.91C793.561 630.543 791.012 609.151 788.289 605.333C787.944 604.85 787.154 604.845 786.787 604.38C784.537 601.528 782.822 593.295 781.567 589.684C784.89 568.759 789.484 550.724 797.865 531.225Z"/>
	<path fill="#430141" d="M797.865 531.225C803.81 518.435 811.5 507.126 820.302 496.167L820.879 504.544C818.168 509.261 816.23 513.56 814.754 518.801C808.708 533.314 800.968 548.586 800.899 564.57L800.886 565.77C800.885 566.01 800.891 566.25 800.893 566.49C796.605 586.355 794.316 606.656 796.904 626.93L795.801 626.667C788.966 602.285 798.618 570.044 801.184 545.538C801.826 539.405 801.96 536.206 797.865 531.225Z"/>
	<path fill="#230022" fill-opacity="0.14117648" d="M1180.14 478.832C1182.99 478.789 1184.07 478.866 1186.11 481.002C1191.73 486.877 1188.76 506.056 1187.86 513.822C1186.88 522.32 1184.43 530.624 1183.57 539.062C1183.03 544.245 1183.46 549.512 1183.25 554.712C1182.66 569.743 1178.57 579.835 1172.15 593.12C1173.1 597.679 1174.53 602.253 1172.01 606.567C1169 611.702 1160.71 614.397 1155.46 616.851C1150.31 615.751 1141.93 614.658 1138.82 609.882C1134.74 603.609 1137.48 597.855 1135.4 591.564L1135.85 590.667C1135.91 587.514 1136.55 584.722 1137.32 581.674L1140.38 584.023C1149.36 586.248 1161.26 585.951 1170.11 583.193L1171.48 580.666C1171.69 577.713 1171.21 574.46 1171.03 571.489C1171.72 564.48 1172.16 557.692 1172.03 550.632C1173.29 541.193 1172.94 531.581 1173.96 522.1C1175.48 507.931 1178.27 493.907 1179.73 479.729L1180.14 478.832ZM1170.11 583.193C1161.26 585.951 1149.36 586.248 1140.38 584.023C1139.68 588.742 1140.93 593.118 1143.91 597.02C1145.8 599.493 1148.57 601.096 1151.68 601.375C1155.49 601.716 1159.4 600.238 1162.25 597.728C1165.08 595.236 1169.88 587.922 1170.15 584.086C1170.17 583.789 1170.12 583.491 1170.11 583.193ZM1135.85 590.667C1138.19 596.258 1140.62 602.74 1145.6 606.483C1148.8 608.891 1152.38 610.058 1156.37 609.257C1161.34 608.26 1165.52 604.484 1168.05 600.228C1170.41 596.254 1172.92 590.415 1171.62 585.789C1171.23 584.394 1171.07 583.596 1171.26 582.127C1171.33 581.639 1171.41 581.153 1171.48 580.666L1170.11 583.193C1170.12 583.491 1170.17 583.789 1170.15 584.086C1169.88 587.922 1165.08 595.236 1162.25 597.728C1159.4 600.238 1155.49 601.716 1151.68 601.375C1148.57 601.096 1145.8 599.493 1143.91 597.02C1140.93 593.118 1139.68 588.742 1140.38 584.023L1137.32 581.674C1136.55 584.722 1135.91 587.514 1135.85 590.667Z"/>
	<path fill="#430141" fill-opacity="0.28627452" d="M1135.85 590.667C1135.91 587.514 1136.55 584.722 1137.32 581.674L1140.38 584.023C1139.68 588.742 1140.93 593.118 1143.91 597.02C1145.8 599.493 1148.57 601.096 1151.68 601.375C1155.49 601.716 1159.4 600.238 1162.25 597.728C1165.08 595.236 1169.88 587.922 1170.15 584.086C1170.17 583.789 1170.12 583.491 1170.11 583.193L1171.48 580.666C1171.41 581.153 1171.33 581.639 1171.26 582.127C1171.07 583.596 1171.23 584.394 1171.62 585.789C1172.92 590.415 1170.41 596.254 1168.05 600.228C1165.52 604.484 1161.34 608.26 1156.37 609.257C1152.38 610.058 1148.8 608.891 1145.6 606.483C1140.62 602.74 1138.19 596.258 1135.85 590.667Z"/>
	<path fill="#430141" fill-opacity="0.43529412" d="M1170.11 583.193C1170.12 583.491 1170.17 583.789 1170.15 584.086C1169.88 587.922 1165.08 595.236 1162.25 597.728C1159.4 600.238 1155.49 601.716 1151.68 601.375C1148.57 601.096 1145.8 599.493 1143.91 597.02C1140.93 593.118 1139.68 588.742 1140.38 584.023C1149.36 586.248 1161.26 585.951 1170.11 583.193Z"/>
	<path fill="#430141" fill-opacity="0.043137256" d="M806.289 725.739C797.512 718.289 793.14 709.751 790.546 698.796C789.813 695.698 789.286 691.98 787.849 689.133C782.188 677.916 779.246 680.27 775.747 664.723C771.53 645.985 768.426 600.704 778.996 583.922C780.481 586.42 779.053 589.233 780.419 591.737C780.585 592.041 780.775 592.332 780.953 592.629L781.567 589.684C782.822 593.295 784.537 601.528 786.787 604.38C787.154 604.845 787.944 604.85 788.289 605.333C791.012 609.151 793.561 630.543 795.294 636.91C797.045 647.378 800.697 656.836 804.64 666.616C802.006 664.691 801.763 664.088 798.389 664.207C796.505 665.835 795.58 667.354 795.346 669.83C795.071 672.736 795.677 675.811 796.112 678.684C803.257 692.255 812.138 703.163 820.798 715.651C821.221 723.291 822.812 728.205 828.71 733.553C835.003 739.259 843.549 742.404 849.518 748.463C834.566 744.808 820.641 732.326 809.075 722.555C806.973 719.913 804.301 717.566 801.911 715.173C803.424 718.629 805.197 722.129 806.289 725.739ZM785.92 651.112C779.364 673.772 795.845 687.441 796.941 708.938L801.911 715.173C804.301 717.566 806.973 719.913 809.075 722.555C820.641 732.326 834.566 744.808 849.518 748.463C843.549 742.404 835.003 739.259 828.71 733.553C822.812 728.205 821.221 723.291 820.798 715.651C812.138 703.163 803.257 692.255 796.112 678.684C790.951 670.34 788.252 660.553 785.92 651.112Z"/>
	<path fill="#430141" d="M780.953 592.629L781.567 589.684C782.822 593.295 784.537 601.528 786.787 604.38C787.154 604.845 787.944 604.85 788.289 605.333C791.012 609.151 793.561 630.543 795.294 636.91C797.045 647.378 800.697 656.836 804.64 666.616C802.006 664.691 801.763 664.088 798.389 664.207C796.505 665.835 795.58 667.354 795.346 669.83C795.071 672.736 795.677 675.811 796.112 678.684C790.951 670.34 788.252 660.553 785.92 651.112C779.844 633.193 779.539 611.393 780.953 592.629Z"/>
	<path fill="#CF00B8" fill-opacity="0.35686275" d="M785.92 651.112C788.252 660.553 790.951 670.34 796.112 678.684C803.257 692.255 812.138 703.163 820.798 715.651C821.221 723.291 822.812 728.205 828.71 733.553C835.003 739.259 843.549 742.404 849.518 748.463C834.566 744.808 820.641 732.326 809.075 722.555C806.973 719.913 804.301 717.566 801.911 715.173L796.941 708.938C795.845 687.441 779.364 673.772 785.92 651.112Z"/>
	<path fill="#230022" fill-opacity="0.14509805" d="M1174.96 1008.49C1177.48 1007.94 1180 1007.25 1182.58 1007.09C1153.36 1052.8 1078.05 1089.15 1026.37 1100.48C979.024 1110.86 929.278 1111.2 881.33 1105C872.911 1103.91 864.257 1103.39 855.922 1101.83C849.136 1100.55 841.269 1097.12 834.462 1097.04C823.209 1087.9 802.674 1084.76 788.791 1079.5C784.394 1075.99 780.839 1072.87 777.262 1068.49Q775.637 1056.19 776.101 1043.8L777.083 1044.9C777.005 1047.02 777.105 1049.17 777.249 1051.29C777.749 1058.58 780.604 1064.6 786.229 1069.4C811.403 1090.87 897.199 1099.26 930.258 1100.37C946.012 1100.9 961.997 1100.27 977.699 1098.95C1049.13 1092.92 1127.54 1064.73 1174.96 1008.49Z"/>
	<path fill="#430141" fill-opacity="0.4627451" d="M1198.65 968.8C1197.08 973.399 1195.32 977.939 1193.61 982.491L1195.26 982.938L1197.08 982.321L1198.13 984.713L1193.1 991.267C1189.28 996.319 1186.78 1002.45 1182.58 1007.09C1180 1007.25 1177.48 1007.94 1174.96 1008.49C1127.54 1064.73 1049.13 1092.92 977.699 1098.95C961.997 1100.27 946.012 1100.9 930.258 1100.37C897.199 1099.26 811.403 1090.87 786.229 1069.4C780.604 1064.6 777.749 1058.58 777.249 1051.29C777.105 1049.17 777.005 1047.02 777.083 1044.9L783.041 1047.59L790.702 1051.06C787.593 1052.5 786.284 1052.61 784.552 1055.65C785.608 1058.8 786.973 1059.68 789.939 1061.27C806.565 1070.17 848.646 1080.11 867.702 1082.62C875.148 1083.6 893.935 1084.32 900.086 1086.59L948.278 1087.28C958.174 1087.49 968.61 1088.59 978.418 1087.45C988.196 1084.89 999.613 1085.7 1009.76 1083.7C1049.47 1075.89 1083.3 1063.84 1118.8 1044.29C1121.29 1037.02 1143.73 1024.51 1150.67 1019.25C1153.79 1016.87 1158.86 1013.06 1159.2 1008.87C1159.35 1007.01 1157.89 1005.98 1156.76 1004.58C1163.77 998.346 1171.19 992.125 1176.13 984.048L1178.02 984.372C1185.85 982.531 1192.61 973.956 1198.65 968.8ZM1198.65 968.8C1192.61 973.956 1185.85 982.531 1178.02 984.372L1176.13 984.048C1171.19 992.125 1163.77 998.346 1156.76 1004.58C1157.89 1005.98 1159.35 1007.01 1159.2 1008.87C1158.86 1013.06 1153.79 1016.87 1150.67 1019.25C1143.73 1024.51 1121.29 1037.02 1118.8 1044.29C1147.92 1031.88 1173.31 1006.13 1193.61 982.491C1195.32 977.939 1197.08 973.399 1198.65 968.8ZM900.086 1086.59C901.462 1087.41 903.528 1089.13 905.085 1089.06C923.223 1088.23 965.184 1101.01 978.418 1087.45C968.61 1088.59 958.174 1087.49 948.278 1087.28L900.086 1086.59ZM1195.26 982.938C1189.06 991.778 1182.12 1000.41 1174.96 1008.49C1177.48 1007.94 1180 1007.25 1182.58 1007.09C1186.78 1002.45 1189.28 996.319 1193.1 991.267L1198.13 984.713L1197.08 982.321L1195.26 982.938Z"/>
	<path fill="#230022" fill-opacity="0.16078432" d="M1195.26 982.938L1197.08 982.321L1198.13 984.713L1193.1 991.267C1189.28 996.319 1186.78 1002.45 1182.58 1007.09C1180 1007.25 1177.48 1007.94 1174.96 1008.49C1182.12 1000.41 1189.06 991.778 1195.26 982.938Z"/>
	<path fill="#430141" fill-opacity="0.51764709" d="M900.086 1086.59L948.278 1087.28C958.174 1087.49 968.61 1088.59 978.418 1087.45C965.184 1101.01 923.223 1088.23 905.085 1089.06C903.528 1089.13 901.462 1087.41 900.086 1086.59Z"/>
	<path fill="#CF00B8" fill-opacity="0.50980395" d="M1198.65 968.8C1197.08 973.399 1195.32 977.939 1193.61 982.491C1173.31 1006.13 1147.92 1031.88 1118.8 1044.29C1121.29 1037.02 1143.73 1024.51 1150.67 1019.25C1153.79 1016.87 1158.86 1013.06 1159.2 1008.87C1159.35 1007.01 1157.89 1005.98 1156.76 1004.58C1163.77 998.346 1171.19 992.125 1176.13 984.048L1178.02 984.372C1185.85 982.531 1192.61 973.956 1198.65 968.8Z"/>
	<path fill="#230022" fill-opacity="0.13725491" d="M801.911 715.173C804.301 717.566 806.973 719.913 809.075 722.555C834.315 762.079 881.52 776.984 924.981 786.533C955.067 793.143 985.758 796.97 1016.1 802.221C1034.48 805.401 1053.99 808.427 1071.38 815.395C1085.98 821.246 1098.17 830.873 1112.14 837.806C1109.37 831.901 1104.66 826.569 1100.68 821.432C1100.88 821.515 1101.08 821.593 1101.27 821.681C1106.26 823.929 1111.5 831.786 1117.43 829.439C1119.45 828.639 1121.54 826.633 1123.14 825.164C1124.97 829.294 1127.61 832.982 1130.01 836.797C1134.09 837.666 1136.81 838.532 1140.49 836.319C1141.58 833.762 1141.16 832.646 1140.81 829.934L1141.96 829.358C1146.43 840.151 1151.98 852.158 1153.22 863.848L1155.65 864.082C1156.86 866.103 1156.85 867.973 1157 870.251C1158.34 889.485 1159.31 923.77 1150.9 941.412L1150.24 942.198C1140.56 953.854 1133.81 976.594 1116.33 978.229C1115.72 978.286 1115.11 978.293 1114.5 978.306C1120.06 970.686 1125.39 963.244 1128.92 954.414C1122.56 944.854 1133.09 932.497 1133.66 922.263C1134.17 913.183 1132.28 902.472 1130.89 893.465C1128.27 876.458 1125.14 854.391 1110.2 843.865C1102.8 838.655 1094.69 834.712 1087.33 829.333C1085.3 826.282 1080.6 825.011 1077.33 823.737C1065.81 817.787 1053.01 817.339 1040.47 815.039Q1002.6 808.371 964.65 802.197C951.562 800.071 938.227 798.525 925.287 795.632C900.896 790.18 871.63 777.529 849.413 766.283C837.284 758.628 823.989 750.69 815.029 739.258C811.865 735.221 809.814 730.432 806.725 726.308C806.582 726.117 806.434 725.929 806.289 725.739C805.197 722.129 803.424 718.629 801.911 715.173ZM1100.68 821.432C1104.66 826.569 1109.37 831.901 1112.14 837.806C1117.25 845.545 1124.54 850.266 1130.22 857.358C1135.55 864.022 1133.59 872.586 1142.58 876.733C1140.02 862.236 1135.9 850.271 1130.01 836.797C1127.61 832.982 1124.97 829.294 1123.14 825.164C1121.54 826.633 1119.45 828.639 1117.43 829.439C1111.5 831.786 1106.26 823.929 1101.27 821.681C1101.08 821.593 1100.88 821.515 1100.68 821.432Z"/>
	<path fill="#CF00B8" fill-opacity="0.35686275" d="M1100.68 821.432C1100.88 821.515 1101.08 821.593 1101.27 821.681C1106.26 823.929 1111.5 831.786 1117.43 829.439C1119.45 828.639 1121.54 826.633 1123.14 825.164C1124.97 829.294 1127.61 832.982 1130.01 836.797C1135.9 850.271 1140.02 862.236 1142.58 876.733C1133.59 872.586 1135.55 864.022 1130.22 857.358C1124.54 850.266 1117.25 845.545 1112.14 837.806C1109.37 831.901 1104.66 826.569 1100.68 821.432Z"/>
	<path fill="#430141" d="M1130.01 836.797C1134.09 837.666 1136.81 838.532 1140.49 836.319C1141.58 833.762 1141.16 832.646 1140.81 829.934L1141.96 829.358C1146.43 840.151 1151.98 852.158 1153.22 863.848C1155.85 878.19 1155.37 891.256 1146.87 903.5Q1144.73 906.565 1142.51 909.574L1142.58 876.733C1140.02 862.236 1135.9 850.271 1130.01 836.797Z"/>
	<path fill="#E0B0FE" d="M1153.22 863.848L1155.65 864.082C1156.86 866.103 1156.85 867.973 1157 870.251C1158.34 889.485 1159.31 923.77 1150.9 941.412L1150.24 942.198C1140.56 953.854 1133.81 976.594 1116.33 978.229C1115.72 978.286 1115.11 978.293 1114.5 978.306C1120.06 970.686 1125.39 963.244 1128.92 954.414L1129.84 954.164C1136.17 939.272 1140.17 925.649 1142.51 909.574Q1144.73 906.565 1146.87 903.5C1155.37 891.256 1155.85 878.19 1153.22 863.848Z"/>
	<path fill="#430141" d="M1129.84 954.164C1130.17 954.155 1130.5 954.157 1130.83 954.138C1135.2 953.883 1138.61 951.262 1141.38 948.087C1158.63 928.363 1157.36 895.552 1155.58 871.084L1157 870.251C1158.34 889.485 1159.31 923.77 1150.9 941.412L1150.24 942.198C1140.56 953.854 1133.81 976.594 1116.33 978.229C1115.72 978.286 1115.11 978.293 1114.5 978.306C1120.06 970.686 1125.39 963.244 1128.92 954.414L1129.84 954.164Z"/>
	<path fill="#430141" fill-opacity="0.4509804" d="M820.798 715.651C825.212 719.58 829.503 723.721 834.741 726.541C852.319 747.869 915.357 762.808 942.184 767.051C961.976 770.643 982.186 774.723 1002.16 776.915Q1015.12 779.388 1028.14 781.544C1033.24 782.58 1038.54 784.01 1043.71 784.551C1061.57 789.314 1083.06 793.837 1098.66 804.125L1103.67 806.211C1104.57 808.928 1107.9 811.707 1110.28 813.216C1114.63 816.767 1120.11 820.411 1123.14 825.164C1121.54 826.633 1119.45 828.639 1117.43 829.439C1111.5 831.786 1106.26 823.929 1101.27 821.681C1101.08 821.593 1100.88 821.515 1100.68 821.432C1104.66 826.569 1109.37 831.901 1112.14 837.806C1098.17 830.873 1085.98 821.246 1071.38 815.395C1053.99 808.427 1034.48 805.401 1016.1 802.221C985.758 796.97 955.067 793.143 924.981 786.533C881.52 776.984 834.315 762.079 809.075 722.555C820.641 732.326 834.566 744.808 849.518 748.463C843.549 742.404 835.003 739.259 828.71 733.553C822.812 728.205 821.221 723.291 820.798 715.651ZM820.798 715.651C821.221 723.291 822.812 728.205 828.71 733.553C835.003 739.259 843.549 742.404 849.518 748.463C874.616 758.987 901.746 772.219 929.225 774.241C973.77 787.598 1033.45 786.128 1075.15 805.527C1084.31 809.789 1092.48 815.604 1100.68 821.432C1100.88 821.515 1101.08 821.593 1101.27 821.681C1106.26 823.929 1111.5 831.786 1117.43 829.439C1119.45 828.639 1121.54 826.633 1123.14 825.164C1120.11 820.411 1114.63 816.767 1110.28 813.216C1107.9 811.707 1104.57 808.928 1103.67 806.211L1098.66 804.125C1083.06 793.837 1061.57 789.314 1043.71 784.551C1038.54 784.01 1033.24 782.58 1028.14 781.544Q1015.12 779.388 1002.16 776.915C982.186 774.723 961.976 770.643 942.184 767.051C915.357 762.808 852.319 747.869 834.741 726.541C829.503 723.721 825.212 719.58 820.798 715.651Z"/>
	<path fill="#CF00B8" fill-opacity="0.58039218" d="M820.798 715.651C825.212 719.58 829.503 723.721 834.741 726.541C852.319 747.869 915.357 762.808 942.184 767.051C961.976 770.643 982.186 774.723 1002.16 776.915Q1015.12 779.388 1028.14 781.544C1033.24 782.58 1038.54 784.01 1043.71 784.551C1061.57 789.314 1083.06 793.837 1098.66 804.125L1103.67 806.211C1104.57 808.928 1107.9 811.707 1110.28 813.216C1114.63 816.767 1120.11 820.411 1123.14 825.164C1121.54 826.633 1119.45 828.639 1117.43 829.439C1111.5 831.786 1106.26 823.929 1101.27 821.681C1101.08 821.593 1100.88 821.515 1100.68 821.432C1092.48 815.604 1084.31 809.789 1075.15 805.527C1033.45 786.128 973.77 787.598 929.225 774.241C901.746 772.219 874.616 758.987 849.518 748.463C843.549 742.404 835.003 739.259 828.71 733.553C822.812 728.205 821.221 723.291 820.798 715.651ZM929.225 774.241C973.77 787.598 1033.45 786.128 1075.15 805.527C1084.31 809.789 1092.48 815.604 1100.68 821.432C1100.88 821.515 1101.08 821.593 1101.27 821.681C1106.26 823.929 1111.5 831.786 1117.43 829.439C1119.45 828.639 1121.54 826.633 1123.14 825.164C1120.11 820.411 1114.63 816.767 1110.28 813.216C1107.9 811.707 1104.57 808.928 1103.67 806.211L1098.66 804.125C1098.58 804.415 1098.49 804.701 1098.43 804.995C1097.57 809.226 1101.14 813.887 1103.23 817.418C1099.99 815.338 1097 812.975 1093.9 810.699C1069.98 793.116 995.905 783.793 964.233 778.769C954.785 777.27 938.325 772.834 929.225 774.241Z"/>
	<path fill="#CF00B8" fill-opacity="0.50196081" d="M929.225 774.241C938.325 772.834 954.785 777.27 964.233 778.769C995.905 783.793 1069.98 793.116 1093.9 810.699C1097 812.975 1099.99 815.338 1103.23 817.418C1101.14 813.887 1097.57 809.226 1098.43 804.995C1098.49 804.701 1098.58 804.415 1098.66 804.125L1103.67 806.211C1104.57 808.928 1107.9 811.707 1110.28 813.216C1114.63 816.767 1120.11 820.411 1123.14 825.164C1121.54 826.633 1119.45 828.639 1117.43 829.439C1111.5 831.786 1106.26 823.929 1101.27 821.681C1101.08 821.593 1100.88 821.515 1100.68 821.432C1092.48 815.604 1084.31 809.789 1075.15 805.527C1033.45 786.128 973.77 787.598 929.225 774.241Z"/>
	<path fill="#3A3867" d="M1030.33 429.524C1044.87 430.458 1080.81 434.272 1093.47 440.009C1116.99 450.42 1148.03 449.83 1168.19 467.175L1171.1 455.158C1175.6 457.334 1179.99 459.383 1183.26 463.314C1182.36 468.445 1181.73 473.875 1180.14 478.832L1179.73 479.729C1178.27 493.907 1175.48 507.931 1173.96 522.1C1172.94 531.581 1173.29 541.193 1172.03 550.632C1172.16 557.692 1171.72 564.48 1171.03 571.489C1171.21 574.46 1171.69 577.713 1171.48 580.666L1170.11 583.193C1161.26 585.951 1149.36 586.248 1140.38 584.023L1137.32 581.674C1137.91 576.415 1137.67 570.837 1137.76 565.533C1134.94 562.02 1134.77 559.503 1134.33 555.207C1134 553.899 1133.8 552.643 1132.6 551.834C1130.3 550.288 1129.54 548.837 1128.12 546.463C1126.48 541.629 1124.03 538.344 1120.83 534.475C1122.06 531.074 1123.75 528.411 1122.89 524.834L1120 523.493C1122.34 523.115 1124.26 522.155 1126.24 523.566C1126.42 522.606 1126.51 522.253 1126.59 521.363C1126.9 517.756 1124.82 515.5 1122.7 512.818L1120.03 503.894C1120.68 502.798 1120.29 502.395 1120.05 501.188C1118.29 499.681 1116.78 498.486 1115.73 496.366L1117.63 494.396L1118.07 493.893L1117.89 492.875C1112.66 490.576 1107.6 488.175 1102.59 485.419C1106.78 483.393 1111.01 489.497 1115.83 490.033C1115.6 488.093 1112.72 486.472 1111.15 485.221C1110.54 480.447 1100.89 479.564 1098.21 475.43C1100.67 471.098 1103.62 473.865 1107.09 472.084L1107.87 472.395C1110.4 473.377 1114.56 475.154 1117.2 474.002C1114.04 468.408 1103.14 463.607 1097.5 460.586C1077.33 453.534 1055.58 446.899 1034.47 443.549C1035.32 443.339 1035.49 443.268 1036.48 443.193C1061.54 441.303 1128.78 463.686 1148.72 479.928C1149.75 486.013 1150.68 492.067 1152.58 497.959C1154.24 493.323 1151.55 480.479 1151.03 474.904C1112.99 453.854 1067.45 441.376 1024.28 437.578L1023.73 432.931C1025.38 430.247 1027.43 430.327 1030.33 429.524ZM1183.26 463.314C1176.61 466.306 1172.02 470.119 1169.3 477.067C1168.17 479.941 1168.34 483.366 1167.2 486.021C1162.72 499.864 1163.08 516.179 1163.08 530.619L1162.6 540.516C1161.4 548.827 1164.02 558.372 1161.31 566.334C1160.57 568.517 1159.18 570.347 1157.01 571.232C1155.16 571.988 1152.42 571.738 1150.67 570.803C1139.88 565.057 1149.42 528.887 1145.57 517.506L1144.08 518.066C1142.68 520.278 1142.31 521.363 1142.31 523.982C1142.32 525.374 1142.26 526.752 1142.21 528.142C1140 526.134 1140.39 519.876 1140.15 516.812L1135.46 515.126C1132.03 504.813 1126.01 500.702 1117.63 494.396L1115.73 496.366C1116.78 498.486 1118.29 499.681 1120.05 501.188C1120.29 502.395 1120.68 502.798 1120.03 503.894L1122.7 512.818C1124.82 515.5 1126.9 517.756 1126.59 521.363C1126.51 522.253 1126.42 522.606 1126.24 523.566C1124.26 522.155 1122.34 523.115 1120 523.493L1122.89 524.834C1123.75 528.411 1122.06 531.074 1120.83 534.475C1124.03 538.344 1126.48 541.629 1128.12 546.463C1129.54 548.837 1130.3 550.288 1132.6 551.834C1133.8 552.643 1134 553.899 1134.33 555.207C1134.77 559.503 1134.94 562.02 1137.76 565.533C1137.67 570.837 1137.91 576.415 1137.32 581.674L1140.38 584.023C1149.36 586.248 1161.26 585.951 1170.11 583.193L1171.48 580.666C1171.69 577.713 1171.21 574.46 1171.03 571.489C1171.72 564.48 1172.16 557.692 1172.03 550.632C1173.29 541.193 1172.94 531.581 1173.96 522.1C1175.48 507.931 1178.27 493.907 1179.73 479.729L1180.14 478.832C1181.73 473.875 1182.36 468.445 1183.26 463.314Z"/>
	<path fill="#CF00B8" d="M1097.5 460.586C1108.09 463.15 1116.5 468.367 1124.88 475.194L1126.69 484.346C1133.47 490.702 1139.76 494.915 1143.11 503.972C1143.49 505 1143.88 506.019 1144.24 507.054L1140.15 516.812L1135.46 515.126C1132.03 504.813 1126.01 500.702 1117.63 494.396L1118.07 493.893L1117.89 492.875C1112.66 490.576 1107.6 488.175 1102.59 485.419C1106.78 483.393 1111.01 489.497 1115.83 490.033C1115.6 488.093 1112.72 486.472 1111.15 485.221C1110.54 480.447 1100.89 479.564 1098.21 475.43C1100.67 471.098 1103.62 473.865 1107.09 472.084L1107.87 472.395C1110.4 473.377 1114.56 475.154 1117.2 474.002C1114.04 468.408 1103.14 463.607 1097.5 460.586Z"/>
	<path fill="#430141" d="M1183.26 463.314C1182.36 468.445 1181.73 473.875 1180.14 478.832L1179.73 479.729C1178.27 493.907 1175.48 507.931 1173.96 522.1C1172.94 531.581 1173.29 541.193 1172.03 550.632C1172.16 557.692 1171.72 564.48 1171.03 571.489C1171.21 574.46 1171.69 577.713 1171.48 580.666L1170.11 583.193C1161.26 585.951 1149.36 586.248 1140.38 584.023L1137.32 581.674C1137.91 576.415 1137.67 570.837 1137.76 565.533C1134.94 562.02 1134.77 559.503 1134.33 555.207C1134 553.899 1133.8 552.643 1132.6 551.834C1130.3 550.288 1129.54 548.837 1128.12 546.463C1126.48 541.629 1124.03 538.344 1120.83 534.475C1122.06 531.074 1123.75 528.411 1122.89 524.834L1120 523.493C1122.34 523.115 1124.26 522.155 1126.24 523.566C1126.42 522.606 1126.51 522.253 1126.59 521.363C1126.9 517.756 1124.82 515.5 1122.7 512.818L1120.03 503.894C1120.68 502.798 1120.29 502.395 1120.05 501.188C1118.29 499.681 1116.78 498.486 1115.73 496.366L1117.63 494.396C1126.01 500.702 1132.03 504.813 1135.46 515.126L1140.15 516.812C1140.39 519.876 1140 526.134 1142.21 528.142C1142.26 526.752 1142.32 525.374 1142.31 523.982C1142.31 521.363 1142.68 520.278 1144.08 518.066L1145.57 517.506C1149.42 528.887 1139.88 565.057 1150.67 570.803C1152.42 571.738 1155.16 571.988 1157.01 571.232C1159.18 570.347 1160.57 568.517 1161.31 566.334C1164.02 558.372 1161.4 548.827 1162.6 540.516L1163.08 530.619C1163.08 516.179 1162.72 499.864 1167.2 486.021C1168.34 483.366 1168.17 479.941 1169.3 477.067C1172.02 470.119 1176.61 466.306 1183.26 463.314ZM1120.03 503.894L1122.7 512.818C1124.82 515.5 1126.9 517.756 1126.59 521.363C1126.51 522.253 1126.42 522.606 1126.24 523.566C1124.26 522.155 1122.34 523.115 1120 523.493L1122.89 524.834C1123.75 528.411 1122.06 531.074 1120.83 534.475C1124.03 538.344 1126.48 541.629 1128.12 546.463C1129.54 548.837 1130.3 550.288 1132.6 551.834C1133.8 552.643 1134 553.899 1134.33 555.207C1134.77 559.503 1134.94 562.02 1137.76 565.533C1138.42 550.467 1136.72 530.299 1135.46 515.126C1132.03 504.813 1126.01 500.702 1117.63 494.396L1115.73 496.366C1116.78 498.486 1118.29 499.681 1120.05 501.188C1120.29 502.395 1120.68 502.798 1120.03 503.894Z"/>
	<path fill="#CF00B8" d="M1183.26 463.314C1182.36 468.445 1181.73 473.875 1180.14 478.832L1179.73 479.729C1170.53 492.844 1172.5 513.215 1169.05 528.428C1168.36 514.316 1167.36 500.148 1167.2 486.021C1168.34 483.366 1168.17 479.941 1169.3 477.067C1172.02 470.119 1176.61 466.306 1183.26 463.314Z"/>
	<path fill="#430141" fill-opacity="0.59215689" d="M1120.03 503.894C1120.68 502.798 1120.29 502.395 1120.05 501.188C1118.29 499.681 1116.78 498.486 1115.73 496.366L1117.63 494.396C1126.01 500.702 1132.03 504.813 1135.46 515.126C1136.72 530.299 1138.42 550.467 1137.76 565.533C1134.94 562.02 1134.77 559.503 1134.33 555.207C1134 553.899 1133.8 552.643 1132.6 551.834C1130.3 550.288 1129.54 548.837 1128.12 546.463C1126.48 541.629 1124.03 538.344 1120.83 534.475C1122.06 531.074 1123.75 528.411 1122.89 524.834L1120 523.493C1122.34 523.115 1124.26 522.155 1126.24 523.566C1126.42 522.606 1126.51 522.253 1126.59 521.363C1126.9 517.756 1124.82 515.5 1122.7 512.818L1120.03 503.894ZM1120 523.493L1122.89 524.834C1123.75 528.411 1122.06 531.074 1120.83 534.475C1124.03 538.344 1126.48 541.629 1128.12 546.463C1129.54 548.837 1130.3 550.288 1132.6 551.834C1133.8 552.643 1134 553.899 1134.33 555.207C1134.52 539.714 1131.88 537.09 1126.24 523.566C1124.26 522.155 1122.34 523.115 1120 523.493Z"/>
	<path fill="#230022" fill-opacity="0.14509805" d="M1120 523.493C1122.34 523.115 1124.26 522.155 1126.24 523.566C1131.88 537.09 1134.52 539.714 1134.33 555.207C1134 553.899 1133.8 552.643 1132.6 551.834C1130.3 550.288 1129.54 548.837 1128.12 546.463C1126.48 541.629 1124.03 538.344 1120.83 534.475C1122.06 531.074 1123.75 528.411 1122.89 524.834L1120 523.493Z"/>
	<path fill="#CF00B8" fill-opacity="0.58823532" d="M1126.21 1025.61C1132.96 1018.73 1147.77 1011.92 1156.76 1004.58C1157.89 1005.98 1159.35 1007.01 1159.2 1008.87C1158.86 1013.06 1153.79 1016.87 1150.67 1019.25C1143.73 1024.51 1121.29 1037.02 1118.8 1044.29C1083.3 1063.84 1049.47 1075.89 1009.76 1083.7C999.613 1085.7 988.196 1084.89 978.418 1087.45C968.61 1088.59 958.174 1087.49 948.278 1087.28L900.086 1086.59C893.935 1084.32 875.148 1083.6 867.702 1082.62C848.646 1080.11 806.565 1070.17 789.939 1061.27C786.973 1059.68 785.608 1058.8 784.552 1055.65C786.284 1052.61 787.593 1052.5 790.702 1051.06L783.041 1047.59C788.53 1045.96 793.524 1044.8 799.037 1047.44C799.364 1047.6 799.657 1047.82 799.967 1048.01C804.494 1045.25 809.321 1044.25 814.466 1043.37Q819.436 1044.95 824.445 1046.4Q829.455 1047.85 834.5 1049.16Q839.545 1050.48 844.623 1051.67Q849.7 1052.86 854.807 1053.91Q859.914 1054.97 865.046 1055.89Q870.179 1056.81 875.333 1057.6Q880.488 1058.39 885.661 1059.04Q890.835 1059.7 896.023 1060.22Q901.212 1060.74 906.412 1061.13Q911.612 1061.51 916.821 1061.76Q922.029 1062.01 927.243 1062.13Q932.456 1062.25 937.671 1062.23Q942.885 1062.21 948.097 1062.05Q953.31 1061.9 958.516 1061.61Q963.723 1061.32 968.92 1060.89Q974.117 1060.47 979.302 1059.91C994.561 1058.25 1009.74 1054.09 1024.88 1052.68C1034.13 1053.6 1041.31 1051.84 1049.99 1048.74C1054.77 1046.95 1059.49 1045.36 1064.41 1044.02C1074.21 1039.14 1084.58 1035.01 1094.68 1030.76L1096.34 1032.49C1104.29 1034.18 1111.57 1028.02 1118.69 1025.22C1122.36 1023.78 1122.71 1024.13 1126.21 1025.61Z"/>
	<path fill="#430141" d="M1064.41 1044.02C1067.97 1045.04 1071.72 1046.25 1075.4 1046.66C1080.39 1047.22 1085.17 1046.3 1090.03 1047.83C1082.39 1051.97 1071.01 1057.9 1062.49 1059.35C1052.85 1062.99 1043.09 1065.88 1033.28 1068.99L1030.71 1065.98L1031.15 1064.26C1035.56 1060.96 1042.6 1060.37 1047.95 1059.31C1050.71 1057.23 1053.44 1055.32 1056.4 1053.53L1056.19 1052.06L1049.99 1048.74C1054.77 1046.95 1059.49 1045.36 1064.41 1044.02Z"/>
	<path fill="#9C008E" d="M1094.68 1030.76L1096.34 1032.49C1104.29 1034.18 1111.57 1028.02 1118.69 1025.22C1122.36 1023.78 1122.71 1024.13 1126.21 1025.61C1118.22 1033.38 1101.1 1045.2 1090.03 1047.83C1085.17 1046.3 1080.39 1047.22 1075.4 1046.66C1071.72 1046.25 1067.97 1045.04 1064.41 1044.02C1074.21 1039.14 1084.58 1035.01 1094.68 1030.76Z"/>
	<defs>
		<linearGradient id="gradient_2" gradientUnits="userSpaceOnUse" x1="928.57947" y1="1076.1322" x2="928.73248" y2="1045.4924">
			<stop offset="0" stop-color="#3D003D"/>
			<stop offset="1" stop-color="#67005F"/>
		</linearGradient>
	</defs>
	<path fill="url(#gradient_2)" d="M814.466 1043.37Q819.436 1044.95 824.445 1046.4Q829.455 1047.85 834.5 1049.16Q839.545 1050.48 844.623 1051.67Q849.7 1052.86 854.807 1053.91Q859.914 1054.97 865.046 1055.89Q870.179 1056.81 875.333 1057.6Q880.488 1058.39 885.661 1059.04Q890.835 1059.7 896.023 1060.22Q901.212 1060.74 906.412 1061.13Q911.612 1061.51 916.821 1061.76Q922.029 1062.01 927.243 1062.13Q932.456 1062.25 937.671 1062.23Q942.885 1062.21 948.097 1062.05Q953.31 1061.9 958.516 1061.61Q963.723 1061.32 968.92 1060.89Q974.117 1060.47 979.302 1059.91C994.561 1058.25 1009.74 1054.09 1024.88 1052.68C1034.13 1053.6 1041.31 1051.84 1049.99 1048.74L1056.19 1052.06L1056.4 1053.53C1053.44 1055.32 1050.71 1057.23 1047.95 1059.31C1042.6 1060.37 1035.56 1060.96 1031.15 1064.26L1030.71 1065.98L1033.28 1068.99C1017.62 1071 1002.18 1075.02 986.448 1076.61C944.295 1080.86 874.613 1078.51 834.873 1064.87C819.919 1062.32 804.822 1056.43 790.702 1051.06L783.041 1047.59C788.53 1045.96 793.524 1044.8 799.037 1047.44C799.364 1047.6 799.657 1047.82 799.967 1048.01C804.494 1045.25 809.321 1044.25 814.466 1043.37Z"/>
	<path fill="#430141" d="M783.041 1047.59C788.53 1045.96 793.524 1044.8 799.037 1047.44C799.364 1047.6 799.657 1047.82 799.967 1048.01C813.696 1052.1 827.353 1056.47 840.917 1061.14L840.36 1062.49C839.033 1060.92 827.664 1059.96 821.957 1056.19C820.456 1056.2 819.694 1056.08 818.346 1056.81L818.379 1058.14C823.497 1061.25 829.738 1061.46 835.208 1063.87L834.873 1064.87C819.919 1062.32 804.822 1056.43 790.702 1051.06L783.041 1047.59Z"/>
	<path fill="#430141" fill-opacity="0.45490196" d="M982.601 445.519C1027.82 445.256 1067.3 449.122 1107.09 472.084C1103.62 473.865 1100.67 471.098 1098.21 475.43C1100.89 479.564 1110.54 480.447 1111.15 485.221C1112.72 486.472 1115.6 488.093 1115.83 490.033C1111.01 489.497 1106.78 483.393 1102.59 485.419C1107.6 488.175 1112.66 490.576 1117.89 492.875L1118.07 493.893L1117.63 494.396L1115.73 496.366C1116.78 498.486 1118.29 499.681 1120.05 501.188C1120.29 502.395 1120.68 502.798 1120.03 503.894L1122.7 512.818C1124.82 515.5 1126.9 517.756 1126.59 521.363C1126.51 522.253 1126.42 522.606 1126.24 523.566C1124.26 522.155 1122.34 523.115 1120 523.493C1115.6 521.806 1110.76 520.807 1106.59 518.594C1096.1 513.023 1087.33 505.098 1076.24 500.465C1070.04 495.576 1060.66 492.459 1052.91 491.308C1034.16 485.944 1011.79 484.638 992.505 487.428C983.486 488.734 974.667 491.256 965.662 492.503C950.18 494.647 940.713 492.981 926.308 501.016C916.119 506.7 907.056 513.605 898.705 521.743C894.035 526.294 889.276 531.945 883.94 535.625L884.395 530.272L886.347 521.446Q880.787 526.326 875.54 531.541C879.507 520.21 886.914 510.523 894.149 501.109C898.281 498.211 901.88 493.913 906.02 490.767C903.235 481.834 911.573 480.387 914.731 473.918C912.051 472.44 909.46 472.905 906.454 472.925C919.133 464.211 934.14 457.241 949.041 453.364C960.282 450.438 971.864 450.548 982.601 445.519ZM982.601 445.519C971.864 450.548 960.282 450.438 949.041 453.364C934.14 457.241 919.133 464.211 906.454 472.925C909.46 472.905 912.051 472.44 914.731 473.918C911.573 480.387 903.235 481.834 906.02 490.767C901.88 493.913 898.281 498.211 894.149 501.109C886.914 510.523 879.507 520.21 875.54 531.541Q880.787 526.326 886.347 521.446C888.527 519.391 889.987 514.917 891.67 512.287C900.003 499.263 909.667 490.482 923.66 483.846C923.884 483.703 924.104 483.554 924.332 483.417C965.211 458.742 1018.52 460.656 1063.05 472.193L1063.45 469.2L1071.44 471.246C1081.99 475.489 1092.42 480.334 1102.59 485.419C1106.78 483.393 1111.01 489.497 1115.83 490.033C1115.6 488.093 1112.72 486.472 1111.15 485.221C1110.54 480.447 1100.89 479.564 1098.21 475.43C1100.67 471.098 1103.62 473.865 1107.09 472.084C1067.3 449.122 1027.82 445.256 982.601 445.519ZM923.66 483.846C924.746 484.842 925.558 485.787 927.186 485.726C931.377 485.568 939.024 481.019 943.387 479.388C957.161 474.24 980.906 468.166 995.613 471.905C1003.26 469.389 1012.76 470.366 1020.65 471.174C1047.27 473.904 1070.32 480.702 1094.17 492.834C1100.2 495.904 1117.66 512.895 1120.65 513.309C1121.34 513.405 1122.01 512.982 1122.7 512.818L1120.03 503.894C1120.68 502.798 1120.29 502.395 1120.05 501.188C1118.29 499.681 1116.78 498.486 1115.73 496.366L1117.63 494.396L1118.07 493.893L1117.89 492.875C1112.66 490.576 1107.6 488.175 1102.59 485.419C1092.42 480.334 1081.99 475.489 1071.44 471.246L1063.45 469.2L1063.05 472.193C1018.52 460.656 965.211 458.742 924.332 483.417C924.104 483.554 923.884 483.703 923.66 483.846ZM923.66 483.846C909.667 490.482 900.003 499.263 891.67 512.287C889.987 514.917 888.527 519.391 886.347 521.446L884.395 530.272C893.476 523.379 901.699 512.584 909.775 504.341C936.563 477 961.444 477.823 995.613 471.905C980.906 468.166 957.161 474.24 943.387 479.388C939.024 481.019 931.377 485.568 927.186 485.726C925.558 485.787 924.746 484.842 923.66 483.846Z"/>
	<defs>
		<linearGradient id="gradient_3" gradientUnits="userSpaceOnUse" x1="903.78497" y1="510.17807" x2="898.87274" y2="503.77951">
			<stop offset="0" stop-color="#CD00B8" stop-opacity="0.47058824"/>
			<stop offset="1" stop-color="#D000B8" stop-opacity="0.50980395"/>
		</linearGradient>
	</defs>
	<path fill="url(#gradient_3)" d="M923.66 483.846C924.746 484.842 925.558 485.787 927.186 485.726C931.377 485.568 939.024 481.019 943.387 479.388C957.161 474.24 980.906 468.166 995.613 471.905C961.444 477.823 936.563 477 909.775 504.341C901.699 512.584 893.476 523.379 884.395 530.272L886.347 521.446C888.527 519.391 889.987 514.917 891.67 512.287C900.003 499.263 909.667 490.482 923.66 483.846Z"/>
	<path fill="#CF00B8" fill-opacity="0.61176473" d="M923.66 483.846C923.884 483.703 924.104 483.554 924.332 483.417C965.211 458.742 1018.52 460.656 1063.05 472.193L1063.45 469.2L1071.44 471.246C1081.99 475.489 1092.42 480.334 1102.59 485.419C1107.6 488.175 1112.66 490.576 1117.89 492.875L1118.07 493.893L1117.63 494.396L1115.73 496.366C1116.78 498.486 1118.29 499.681 1120.05 501.188C1120.29 502.395 1120.68 502.798 1120.03 503.894L1122.7 512.818C1122.01 512.982 1121.34 513.405 1120.65 513.309C1117.66 512.895 1100.2 495.904 1094.17 492.834C1070.32 480.702 1047.27 473.904 1020.65 471.174C1012.76 470.366 1003.26 469.389 995.613 471.905C980.906 468.166 957.161 474.24 943.387 479.388C939.024 481.019 931.377 485.568 927.186 485.726C925.558 485.787 924.746 484.842 923.66 483.846ZM1063.45 469.2L1063.05 472.193C1081.66 477.255 1105.63 487.977 1118.52 502.762C1119.21 503.56 1118.96 503.288 1120.03 503.894C1120.68 502.798 1120.29 502.395 1120.05 501.188C1118.29 499.681 1116.78 498.486 1115.73 496.366L1117.63 494.396L1118.07 493.893L1117.89 492.875C1112.66 490.576 1107.6 488.175 1102.59 485.419C1092.42 480.334 1081.99 475.489 1071.44 471.246L1063.45 469.2Z"/>
	<path fill="#430141" fill-opacity="0.60392159" d="M1063.45 469.2L1071.44 471.246C1081.99 475.489 1092.42 480.334 1102.59 485.419C1107.6 488.175 1112.66 490.576 1117.89 492.875L1118.07 493.893L1117.63 494.396L1115.73 496.366C1116.78 498.486 1118.29 499.681 1120.05 501.188C1120.29 502.395 1120.68 502.798 1120.03 503.894C1118.96 503.288 1119.21 503.56 1118.52 502.762C1105.63 487.977 1081.66 477.255 1063.05 472.193L1063.45 469.2Z"/>
	<path fill="#9C008E" d="M982.601 445.519C1027.82 445.256 1067.3 449.122 1107.09 472.084C1103.62 473.865 1100.67 471.098 1098.21 475.43C1100.89 479.564 1110.54 480.447 1111.15 485.221C1112.72 486.472 1115.6 488.093 1115.83 490.033C1111.01 489.497 1106.78 483.393 1102.59 485.419C1092.42 480.334 1081.99 475.489 1071.44 471.246L1063.45 469.2L1063.05 472.193C1018.52 460.656 965.211 458.742 924.332 483.417C924.104 483.554 923.884 483.703 923.66 483.846C909.667 490.482 900.003 499.263 891.67 512.287C889.987 514.917 888.527 519.391 886.347 521.446Q880.787 526.326 875.54 531.541C879.507 520.21 886.914 510.523 894.149 501.109C898.281 498.211 901.88 493.913 906.02 490.767C903.235 481.834 911.573 480.387 914.731 473.918C912.051 472.44 909.46 472.905 906.454 472.925C919.133 464.211 934.14 457.241 949.041 453.364C960.282 450.438 971.864 450.548 982.601 445.519ZM906.02 490.767C901.88 493.913 898.281 498.211 894.149 501.109C886.914 510.523 879.507 520.21 875.54 531.541Q880.787 526.326 886.347 521.446C888.527 519.391 889.987 514.917 891.67 512.287C900.003 499.263 909.667 490.482 923.66 483.846C923.884 483.703 924.104 483.554 924.332 483.417C965.211 458.742 1018.52 460.656 1063.05 472.193L1063.45 469.2C1029.17 454.973 971.551 458.674 937.906 472.577C930.142 475.786 914.546 480.825 909.149 487.164C908.118 488.375 907.051 489.555 906.02 490.767Z"/>
	<path fill="#430141" fill-opacity="0.61960787" d="M906.02 490.767C907.051 489.555 908.118 488.375 909.149 487.164C914.546 480.825 930.142 475.786 937.906 472.577C971.551 458.674 1029.17 454.973 1063.45 469.2L1063.05 472.193C1018.52 460.656 965.211 458.742 924.332 483.417C924.104 483.554 923.884 483.703 923.66 483.846C909.667 490.482 900.003 499.263 891.67 512.287C889.987 514.917 888.527 519.391 886.347 521.446Q880.787 526.326 875.54 531.541C879.507 520.21 886.914 510.523 894.149 501.109C898.281 498.211 901.88 493.913 906.02 490.767Z"/>
	<defs>
		<linearGradient id="gradient_4" gradientUnits="userSpaceOnUse" x1="1027.1241" y1="475.08554" x2="1026.5146" y2="446.31091">
			<stop offset="0" stop-color="#BF01AB"/>
			<stop offset="1" stop-color="#65005E"/>
		</linearGradient>
	</defs>
	<path fill="url(#gradient_4)" d="M982.601 445.519C1027.82 445.256 1067.3 449.122 1107.09 472.084C1103.62 473.865 1100.67 471.098 1098.21 475.43C1100.89 479.564 1110.54 480.447 1111.15 485.221C1112.72 486.472 1115.6 488.093 1115.83 490.033C1111.01 489.497 1106.78 483.393 1102.59 485.419C1092.42 480.334 1081.99 475.489 1071.44 471.246C1069.12 468.184 1062.83 466.694 1059.18 465.092C1062.39 465.343 1064.76 464.964 1067.82 464.121L1068.84 463.831C1068.63 463.759 1068.43 463.677 1068.22 463.616C1059.1 460.942 1028.27 455.476 1018.83 454.763C1004.31 453.666 971.018 453.905 958.591 460.93C958.337 461.073 958.088 461.226 957.837 461.374L955.698 460.81C953.702 458.07 951.416 455.766 949.041 453.364C960.282 450.438 971.864 450.548 982.601 445.519Z"/>
	<path fill="#BF00AC" d="M1068.84 463.831C1075.78 465.945 1082.85 467.75 1089.24 471.373C1097.95 476.308 1099.93 483.132 1111.15 485.221C1112.72 486.472 1115.6 488.093 1115.83 490.033C1111.01 489.497 1106.78 483.393 1102.59 485.419C1092.42 480.334 1081.99 475.489 1071.44 471.246C1069.12 468.184 1062.83 466.694 1059.18 465.092C1062.39 465.343 1064.76 464.964 1067.82 464.121L1068.84 463.831Z"/>
	<path fill="#3A3867" d="M781.938 917.598C781.834 914.6 781.381 911.288 783.553 908.901C786.818 905.313 792.822 903.94 797.486 903.813C801.891 903.692 807.406 904.553 810.751 907.646C816.025 912.523 813.784 927.538 814.401 934.443C814.327 950.096 814.3 973.566 823.687 986.529L826.12 989.973C833.111 995.748 840.059 1001.74 847.699 1006.64Q857.755 1012.13 868.047 1017.17C876.565 1020.35 885.077 1023.44 893.847 1025.86C943.326 1039.49 1002.43 1042.35 1051.1 1023.71C1060.17 1020.23 1069.41 1015.18 1077.88 1010.39C1083.15 1010.91 1087.7 1011.64 1092.75 1009.69C1093.19 1009.51 1093.64 1009.36 1094.08 1009.19C1100.31 1006.78 1106.27 1002.55 1111.96 999.047C1099.3 1013.52 1084.86 1024.84 1066.67 1031.71C1064.41 1032.86 1061.41 1033.96 1059.53 1035.62C1057.65 1037.23 1055.85 1038.87 1054.09 1040.62C1058.84 1040.65 1062.55 1037.78 1067.62 1038.39Q1046.73 1046.96 1024.88 1052.68C1009.74 1054.09 994.561 1058.25 979.302 1059.91Q974.117 1060.47 968.92 1060.89Q963.723 1061.32 958.516 1061.61Q953.31 1061.9 948.098 1062.05Q942.885 1062.21 937.671 1062.23Q932.456 1062.25 927.243 1062.13Q922.029 1062.01 916.821 1061.76Q911.612 1061.51 906.412 1061.13Q901.212 1060.74 896.023 1060.22Q890.835 1059.7 885.661 1059.04Q880.488 1058.39 875.333 1057.6Q870.179 1056.81 865.046 1055.89Q859.914 1054.97 854.807 1053.91Q849.701 1052.86 844.623 1051.67Q839.545 1050.48 834.5 1049.16Q829.455 1047.85 824.445 1046.4Q819.436 1044.95 814.466 1043.37C809.321 1044.25 804.494 1045.25 799.967 1048.01C799.657 1047.82 799.364 1047.6 799.037 1047.44C793.524 1044.8 788.53 1045.96 783.041 1047.59L777.083 1044.9L776.101 1043.8C774.796 1039.1 775.636 1034.83 776.323 1030.1C778.72 1013.06 778.117 995.615 780.249 978.511C779.556 971.261 780.091 963.15 781.243 955.973C778.259 944.054 782.27 929.943 781.938 917.598Z"/>
	<path fill="#B059FE" d="M806.269 985.824C813.355 988.935 818.292 990.671 826.12 989.973C833.111 995.748 840.059 1001.74 847.699 1006.64C836.619 1009.23 827.385 1003.76 817.65 999.278C820.211 1002.34 826.968 1007.35 827.205 1011.42C817.793 1006.57 811.401 994.693 806.269 985.824Z"/>
	<path fill="#CF00B8" d="M1077.88 1010.39C1083.15 1010.91 1087.7 1011.64 1092.75 1009.69C1093.19 1009.51 1093.64 1009.36 1094.08 1009.19C1100.31 1006.78 1106.27 1002.55 1111.96 999.047C1099.3 1013.52 1084.86 1024.84 1066.67 1031.71C1069.37 1029.12 1072.42 1026.82 1075.3 1024.43C1054.76 1031.12 1034.51 1037.36 1012.8 1038.52C961.401 1041.27 915.742 1040.15 865.881 1026.2C856.987 1023.71 846.739 1021.66 838.779 1016.9C835.001 1014.65 831.625 1011.25 828.359 1008.32C841.838 1013.41 853.315 1019.64 868.047 1017.17C876.565 1020.35 885.077 1023.44 893.847 1025.86C943.326 1039.49 1002.43 1042.35 1051.1 1023.71C1060.17 1020.23 1069.41 1015.18 1077.88 1010.39Z"/>
	<path fill="#FEFEFE" d="M784.818 916.283L786.112 915.154C789.43 916.279 792.015 917.798 794.942 919.674C794.779 929.389 791.804 949.508 794.917 957.808L798.603 949.095C800.024 970.129 802.498 989.707 807.853 1010.11C843.446 1044.89 901.952 1053.55 949.566 1053.04C986.521 1052.64 1025.03 1050.06 1059.53 1035.62C1057.65 1037.23 1055.85 1038.87 1054.09 1040.62C1058.84 1040.65 1062.55 1037.78 1067.62 1038.39Q1046.73 1046.96 1024.88 1052.68C1009.74 1054.09 994.561 1058.25 979.302 1059.91Q974.117 1060.47 968.92 1060.89Q963.723 1061.32 958.516 1061.61Q953.31 1061.9 948.098 1062.05Q942.885 1062.21 937.671 1062.23Q932.456 1062.25 927.243 1062.13Q922.029 1062.01 916.821 1061.76Q911.612 1061.51 906.412 1061.13Q901.212 1060.74 896.023 1060.22Q890.835 1059.7 885.661 1059.04Q880.488 1058.39 875.333 1057.6Q870.179 1056.81 865.046 1055.89Q859.914 1054.97 854.807 1053.91Q849.701 1052.86 844.623 1051.67Q839.545 1050.48 834.5 1049.16Q829.455 1047.85 824.445 1046.4Q819.436 1044.95 814.466 1043.37C809.321 1044.25 804.494 1045.25 799.967 1048.01C799.657 1047.82 799.364 1047.6 799.037 1047.44C793.524 1044.8 788.53 1045.96 783.041 1047.59L777.083 1044.9L776.101 1043.8C774.796 1039.1 775.636 1034.83 776.323 1030.1C778.72 1013.06 778.117 995.615 780.249 978.511C779.556 971.261 780.091 963.15 781.243 955.973C778.259 944.054 782.27 929.943 781.938 917.598L784.818 916.283Z"/>
	<path fill="#9C008E" d="M784.818 916.283L786.112 915.154C789.43 916.279 792.015 917.798 794.942 919.674C794.779 929.389 791.804 949.508 794.917 957.808C801.228 971.945 788.95 1022.66 792.725 1030.7C795.221 1031.63 796.35 1031.57 798.868 1030.48C801.727 1029.24 803.569 1027.34 805.493 1025.01C805.862 1024.56 806.253 1024.13 806.633 1023.69C812.21 1025.78 817.579 1029.8 822.461 1033.19C817.291 1032.21 811.945 1031.44 806.898 1029.96L800.468 1038.46C804.927 1040.13 809.814 1042.48 814.466 1043.37C809.321 1044.25 804.494 1045.25 799.967 1048.01C799.657 1047.82 799.364 1047.6 799.037 1047.44C793.524 1044.8 788.53 1045.96 783.041 1047.59L777.083 1044.9L776.101 1043.8C774.796 1039.1 775.636 1034.83 776.323 1030.1C778.72 1013.06 778.117 995.615 780.249 978.511C779.556 971.261 780.091 963.15 781.243 955.973C778.259 944.054 782.27 929.943 781.938 917.598L784.818 916.283Z"/>
	<path d="M780.249 978.511L783.788 979.741C784.182 983.231 784.613 984.69 786.834 987.365C787.002 987.567 787.153 987.783 787.312 987.992C786.839 998.957 782.846 1022.34 785.929 1031.62L784.664 1032.84C781.536 1032.44 779.174 1031.42 776.323 1030.1C778.72 1013.06 778.117 995.615 780.249 978.511Z"/>
	<path fill="#430141" d="M781.938 917.598L784.818 916.283C790.711 924.192 788.207 975.703 787.312 987.992C787.153 987.783 787.002 987.567 786.834 987.365C784.613 984.69 784.182 983.231 783.788 979.741L780.249 978.511C779.556 971.261 780.091 963.15 781.243 955.973C778.259 944.054 782.27 929.943 781.938 917.598Z"/>
	<path fill="#230022" d="M781.243 955.973C785.375 961.429 784.938 971.942 784.02 978.59C783.966 978.978 783.865 979.357 783.788 979.741L780.249 978.511C779.556 971.261 780.091 963.15 781.243 955.973Z"/>
	<path fill="#3A3867" d="M1127.36 1000.89C1132.21 996.813 1136.84 992.001 1141.11 987.302C1174.98 949.982 1198.87 900.86 1196.24 849.712C1195.03 826.135 1188.06 803.375 1173.95 784.27C1139.97 738.272 1068.46 726.779 1015.48 719.784C966.175 713.275 906.397 710.878 867.782 675.549C845.102 654.799 835.487 625.675 834.177 595.574C832.551 558.234 842.389 519.72 868.255 491.739C898.076 459.48 940.125 447.43 982.601 445.519C971.864 450.548 960.282 450.438 949.041 453.364C934.14 457.241 919.133 464.211 906.454 472.925C909.46 472.905 912.051 472.44 914.731 473.918C911.573 480.387 903.235 481.834 906.02 490.767C901.88 493.913 898.281 498.211 894.149 501.109C886.914 510.523 879.507 520.21 875.54 531.541Q880.787 526.326 886.347 521.446L884.395 530.272L883.94 535.625C881.825 537.685 880.64 539.237 879.629 542.023C875.42 548.053 872.827 553.934 870.353 560.813C868.32 565.055 866.411 568.399 862.822 571.583C860.853 580.088 861.542 590.537 861.957 599.212C863.071 607.936 864.513 616.843 867.416 625.169L867.881 624.953C871.76 633.888 876.04 641.979 881.675 649.968C889.264 657.341 896.633 664.47 905.343 670.54C911.386 673.491 917.646 677.165 924.029 679.24C952.21 688.739 980.937 692.494 1010.23 696.782C1042.19 701.461 1074.02 706.038 1105.5 713.45C1118.08 716.538 1141.56 721.705 1151.37 729.806C1156.87 732.75 1162.55 735.522 1167.51 739.321Q1172.65 742.849 1177.43 746.849Q1182.22 750.849 1186.6 755.286C1197.16 768.214 1205.87 780.713 1213.37 795.717C1209.77 799.533 1207.82 803.102 1207.9 808.491C1207.97 812.931 1208.73 817.765 1209.48 822.127C1210 819.256 1210.26 816.54 1212.08 814.152C1213.68 814.828 1213.65 814.82 1214.35 816.472C1217.27 823.344 1217.84 831.792 1218.73 839.177C1220.48 836.602 1221.95 834.005 1223.36 831.229C1223.71 836.46 1223.93 841.741 1224.74 846.924L1225.6 846.615C1226.64 859.705 1227.75 871.139 1226.84 884.362C1223.5 912.233 1221.26 927.654 1208.45 953.624C1208.64 957.148 1208.76 960.647 1209.35 964.132C1206.38 971.397 1202.75 978.349 1198.13 984.713L1197.08 982.321L1195.26 982.938L1193.61 982.491C1195.32 977.939 1197.08 973.399 1198.65 968.8C1192.61 973.956 1185.85 982.531 1178.02 984.372L1176.13 984.048C1171.19 992.125 1163.77 998.346 1156.76 1004.58C1147.77 1011.92 1132.96 1018.73 1126.21 1025.61C1122.71 1024.13 1122.36 1023.78 1118.69 1025.22C1111.57 1028.02 1104.29 1034.18 1096.34 1032.49L1094.68 1030.76C1084.58 1035.01 1074.21 1039.14 1064.41 1044.02C1059.49 1045.36 1054.77 1046.95 1049.99 1048.74C1041.31 1051.84 1034.13 1053.6 1024.88 1052.68Q1046.73 1046.96 1067.62 1038.39C1090.15 1030.31 1110.57 1018.1 1127.36 1000.89ZM1223.36 831.229C1221.95 834.005 1220.48 836.602 1218.73 839.177C1219.41 846.137 1215.73 852.827 1214.57 859.616C1213.19 867.621 1212.7 875.764 1211.2 883.771C1206.02 911.478 1195.2 940.849 1177.23 962.841C1174.19 966.566 1170.9 970.214 1167.4 973.523C1161.7 979.9 1153.45 986.282 1148.81 993.194C1132.36 1008.68 1113.98 1019.3 1094.68 1030.76L1096.34 1032.49C1104.29 1034.18 1111.57 1028.02 1118.69 1025.22C1122.36 1023.78 1122.71 1024.13 1126.21 1025.61C1132.96 1018.73 1147.77 1011.92 1156.76 1004.58C1163.77 998.346 1171.19 992.125 1176.13 984.048L1178.02 984.372C1185.85 982.531 1192.61 973.956 1198.65 968.8C1197.08 973.399 1195.32 977.939 1193.61 982.491L1195.26 982.938L1197.08 982.321L1198.13 984.713C1202.75 978.349 1206.38 971.397 1209.35 964.132C1208.76 960.647 1208.64 957.148 1208.45 953.624C1221.26 927.654 1223.5 912.233 1226.84 884.362C1227.75 871.139 1226.64 859.705 1225.6 846.615L1224.74 846.924C1223.93 841.741 1223.71 836.46 1223.36 831.229ZM874.041 505.11C860.104 523.413 848.088 559.496 851.165 582.48C851.549 585.349 852.073 588.838 854.359 590.849C855.065 591.471 855.559 591.698 856.341 592.131C857.911 595.158 859.287 597.073 861.957 599.212C861.542 590.537 860.853 580.088 862.822 571.583C866.411 568.399 868.32 565.055 870.353 560.813C872.827 553.934 875.42 548.053 879.629 542.023C880.64 539.237 881.825 537.685 883.94 535.625L884.395 530.272L886.347 521.446Q880.787 526.326 875.54 531.541C879.507 520.21 886.914 510.523 894.149 501.109C893.863 501.234 893.574 501.355 893.29 501.485C889.485 503.226 878.436 514.181 876.932 514.079C876.77 509.456 876.73 508.835 874.041 505.11Z"/>
	<path fill="#7940FF" d="M1167.51 739.321Q1172.65 742.849 1177.43 746.849Q1182.22 750.849 1186.6 755.286C1185.78 770.026 1194.97 785.787 1200.16 799.373C1191.95 786.618 1183.62 774.866 1173.72 763.364C1177.53 765.591 1180.6 768.778 1183.82 771.78C1177.91 761.011 1170.31 751.468 1167.51 739.321Z"/>
	<path fill="#430141" d="M845.657 595.835C851.226 604.892 852.398 621.91 862.409 627.111C865.043 626.882 865.324 626.782 867.416 625.169L867.881 624.953C871.76 633.888 876.04 641.979 881.675 649.968C880.123 650.044 878.494 650.125 876.955 649.874C867.809 648.382 860.481 637.067 855.426 630.173C848.818 618.278 846.45 609.404 845.657 595.835Z"/>
	<path fill="#CF00B8" d="M906.454 472.925C909.46 472.905 912.051 472.44 914.731 473.918C911.573 480.387 903.235 481.834 906.02 490.767C901.88 493.913 898.281 498.211 894.149 501.109C893.863 501.234 893.574 501.355 893.29 501.485C889.485 503.226 878.436 514.181 876.932 514.079C876.77 509.456 876.73 508.835 874.041 505.11C876.991 495.026 897.302 478.985 906.454 472.925Z"/>
	<path fill="#430141" d="M1105.5 713.45C1118.08 716.538 1141.56 721.705 1151.37 729.806C1155.93 736.899 1162.14 743.006 1166.47 750.093C1169.12 752.687 1171.45 756.991 1173.59 760.095C1165.76 755.058 1151.56 749.467 1146.41 742.006L1147.21 737.89C1133.78 733.577 1116 722.731 1105.5 713.45Z"/>
	<path fill="#B059FE" d="M855.426 630.173C860.481 637.067 867.809 648.382 876.955 649.874C878.494 650.125 880.123 650.044 881.675 649.968C889.264 657.341 896.633 664.47 905.343 670.54C894.748 673.574 887.205 668.898 877.823 664.648C881.615 668.736 885.017 673.04 888.415 677.458C884.49 674.459 880.813 671.311 877.277 667.855C867.672 658.468 855.571 644.39 855.426 630.173Z"/>
	<path fill="#B059FE" d="M1209.48 822.127C1210 819.256 1210.26 816.54 1212.08 814.152C1213.68 814.828 1213.65 814.82 1214.35 816.472C1217.27 823.344 1217.84 831.792 1218.73 839.177C1219.41 846.137 1215.73 852.827 1214.57 859.616C1213.19 867.621 1212.7 875.764 1211.2 883.771C1206.02 911.478 1195.2 940.849 1177.23 962.841C1174.19 966.566 1170.9 970.214 1167.4 973.523C1167.39 967.616 1177.16 958.848 1180.78 954.347C1185.35 948.661 1188.79 941.179 1192.02 934.63C1209.65 898.824 1213.27 861.443 1209.48 822.127Z"/>
	<path fill="#CF00B8" d="M1146.41 742.006C1135.71 737.343 1127.65 729.929 1115.92 725.379C1069.73 707.468 1012.62 698.669 963.241 691.981C948.184 689.942 932.959 689.228 917.985 686.548C909.583 685.044 896.709 682.952 891.453 675.383C893.79 675.243 896.461 676.659 898.651 677.418C907.928 680.634 914.409 681.022 924.029 679.24C952.21 688.739 980.937 692.494 1010.23 696.782C1042.19 701.461 1074.02 706.038 1105.5 713.45C1116 722.731 1133.78 733.577 1147.21 737.89L1146.41 742.006Z"/>
	<path fill="#430141" d="M874.041 505.11C876.73 508.835 876.77 509.456 876.932 514.079C878.436 514.181 889.485 503.226 893.29 501.485C893.574 501.355 893.863 501.234 894.149 501.109C886.914 510.523 879.507 520.21 875.54 531.541Q880.787 526.326 886.347 521.446L884.395 530.272L883.94 535.625C881.825 537.685 880.64 539.237 879.629 542.023C875.42 548.053 872.827 553.934 870.353 560.813C868.32 565.055 866.411 568.399 862.822 571.583C860.853 580.088 861.542 590.537 861.957 599.212C859.287 597.073 857.911 595.158 856.341 592.131C855.559 591.698 855.065 591.471 854.359 590.849C852.073 588.838 851.549 585.349 851.165 582.48C848.088 559.496 860.104 523.413 874.041 505.11ZM875.54 531.541C871.559 540.155 866.467 549.212 864.763 558.612C864.071 562.869 863.121 567.285 862.822 571.583C866.411 568.399 868.32 565.055 870.353 560.813C872.827 553.934 875.42 548.053 879.629 542.023C880.64 539.237 881.825 537.685 883.94 535.625L884.395 530.272L886.347 521.446Q880.787 526.326 875.54 531.541Z"/>
	<path fill="#430141" fill-opacity="0.56862748" d="M875.54 531.541Q880.787 526.326 886.347 521.446L884.395 530.272L883.94 535.625C881.825 537.685 880.64 539.237 879.629 542.023C875.42 548.053 872.827 553.934 870.353 560.813C868.32 565.055 866.411 568.399 862.822 571.583C863.121 567.285 864.071 562.869 864.763 558.612C866.467 549.212 871.559 540.155 875.54 531.541Z"/>
	<path fill="#430141" d="M1223.36 831.229C1223.71 836.46 1223.93 841.741 1224.74 846.924L1225.6 846.615C1226.64 859.705 1227.75 871.139 1226.84 884.362C1223.5 912.233 1221.26 927.654 1208.45 953.624C1208.64 957.148 1208.76 960.647 1209.35 964.132C1206.38 971.397 1202.75 978.349 1198.13 984.713L1197.08 982.321L1195.26 982.938L1193.61 982.491C1195.32 977.939 1197.08 973.399 1198.65 968.8C1192.61 973.956 1185.85 982.531 1178.02 984.372L1176.13 984.048C1171.19 992.125 1163.77 998.346 1156.76 1004.58C1147.77 1011.92 1132.96 1018.73 1126.21 1025.61C1122.71 1024.13 1122.36 1023.78 1118.69 1025.22C1111.57 1028.02 1104.29 1034.18 1096.34 1032.49L1094.68 1030.76C1113.98 1019.3 1132.36 1008.68 1148.81 993.194C1153.45 986.282 1161.7 979.9 1167.4 973.523C1170.9 970.214 1174.19 966.566 1177.23 962.841C1195.2 940.849 1206.02 911.478 1211.2 883.771C1212.7 875.764 1213.19 867.621 1214.57 859.616C1215.73 852.827 1219.41 846.137 1218.73 839.177C1220.48 836.602 1221.95 834.005 1223.36 831.229ZM1224.74 846.924C1223.97 885.548 1218.8 921.809 1198.22 955.257C1192.03 965.316 1183.76 974.087 1178.02 984.372C1185.85 982.531 1192.61 973.956 1198.65 968.8C1197.08 973.399 1195.32 977.939 1193.61 982.491L1195.26 982.938L1197.08 982.321L1198.13 984.713C1202.75 978.349 1206.38 971.397 1209.35 964.132C1208.76 960.647 1208.64 957.148 1208.45 953.624C1221.26 927.654 1223.5 912.233 1226.84 884.362C1227.75 871.139 1226.64 859.705 1225.6 846.615L1224.74 846.924Z"/>
	<path fill="#CF00B8" d="M1196.8 946.841C1192.03 960.64 1181.83 970.808 1176.13 984.048C1171.19 992.125 1163.77 998.346 1156.76 1004.58C1147.77 1011.92 1132.96 1018.73 1126.21 1025.61C1122.71 1024.13 1122.36 1023.78 1118.69 1025.22C1111.57 1028.02 1104.29 1034.18 1096.34 1032.49L1094.68 1030.76C1113.98 1019.3 1132.36 1008.68 1148.81 993.194C1150.71 993.314 1152.89 993.554 1154.77 993.235C1169.32 990.765 1187.9 958.128 1196.8 946.841Z"/>
	<path fill="#430141" fill-opacity="0.49411765" d="M1224.74 846.924L1225.6 846.615C1226.64 859.705 1227.75 871.139 1226.84 884.362C1223.5 912.233 1221.26 927.654 1208.45 953.624C1208.64 957.148 1208.76 960.647 1209.35 964.132C1206.38 971.397 1202.75 978.349 1198.13 984.713L1197.08 982.321L1195.26 982.938L1193.61 982.491C1195.32 977.939 1197.08 973.399 1198.65 968.8C1192.61 973.956 1185.85 982.531 1178.02 984.372C1183.76 974.087 1192.03 965.316 1198.22 955.257C1218.8 921.809 1223.97 885.548 1224.74 846.924ZM1208.45 953.624C1203.85 962.939 1202.44 973.427 1197.08 982.321L1198.13 984.713C1202.75 978.349 1206.38 971.397 1209.35 964.132C1208.76 960.647 1208.64 957.148 1208.45 953.624Z"/>
	<path fill="#230022" fill-opacity="0.13333334" d="M1208.45 953.624C1208.64 957.148 1208.76 960.647 1209.35 964.132C1206.38 971.397 1202.75 978.349 1198.13 984.713L1197.08 982.321C1202.44 973.427 1203.85 962.939 1208.45 953.624Z"/>
	<path fill="#FEFEFE" d="M946.322 441.281C972.518 439.687 997.89 435.92 1024.28 437.578C1067.45 441.376 1112.99 453.854 1151.03 474.904C1151.55 480.479 1154.24 493.323 1152.58 497.959C1150.68 492.067 1149.75 486.013 1148.72 479.928C1128.78 463.686 1061.54 441.303 1036.48 443.193C1035.49 443.268 1035.32 443.339 1034.47 443.549C1055.58 446.899 1077.33 453.534 1097.5 460.586C1103.14 463.607 1114.04 468.408 1117.2 474.002C1114.56 475.154 1110.4 473.377 1107.87 472.395L1107.09 472.084C1067.3 449.122 1027.82 445.256 982.601 445.519C940.125 447.43 898.076 459.48 868.255 491.739C842.389 519.72 832.551 558.234 834.177 595.574C835.487 625.675 845.102 654.799 867.782 675.549C906.397 710.878 966.175 713.275 1015.48 719.784C1068.46 726.779 1139.97 738.272 1173.95 784.27C1188.06 803.375 1195.03 826.135 1196.24 849.712C1198.87 900.86 1174.98 949.982 1141.11 987.302C1136.84 992.001 1132.21 996.813 1127.36 1000.89C1110.57 1018.1 1090.15 1030.31 1067.62 1038.39C1062.55 1037.78 1058.84 1040.65 1054.09 1040.62C1055.85 1038.87 1057.65 1037.23 1059.53 1035.62C1061.41 1033.96 1064.41 1032.86 1066.67 1031.71C1084.86 1024.84 1099.3 1013.52 1111.96 999.047C1106.27 1002.55 1100.31 1006.78 1094.08 1009.19C1093.64 1009.36 1093.19 1009.51 1092.75 1009.69C1087.7 1011.64 1083.15 1010.91 1077.88 1010.39C1091.59 1000.79 1103.14 990.554 1114.5 978.306C1115.11 978.293 1115.72 978.286 1116.33 978.229C1133.81 976.594 1140.56 953.854 1150.24 942.198L1150.9 941.412C1159.31 923.77 1158.34 889.485 1157 870.251C1156.85 867.973 1156.86 866.103 1155.65 864.082L1153.22 863.848C1151.98 852.158 1146.43 840.151 1141.96 829.358L1140.81 829.934C1141.16 832.646 1141.58 833.762 1140.49 836.319C1136.81 838.532 1134.09 837.666 1130.01 836.797C1127.61 832.982 1124.97 829.294 1123.14 825.164C1120.11 820.411 1114.63 816.767 1110.28 813.216C1107.9 811.707 1104.57 808.928 1103.67 806.211L1098.66 804.125C1083.06 793.837 1061.57 789.314 1043.71 784.551C1038.54 784.01 1033.24 782.58 1028.14 781.544Q1015.12 779.388 1002.16 776.915C982.186 774.723 961.976 770.643 942.184 767.051C915.357 762.808 852.319 747.869 834.741 726.541C829.503 723.721 825.212 719.58 820.798 715.651C812.138 703.163 803.257 692.255 796.112 678.684C795.677 675.811 795.071 672.736 795.346 669.83C795.58 667.354 796.505 665.835 798.389 664.207C801.763 664.088 802.006 664.691 804.64 666.616C800.697 656.836 797.045 647.378 795.294 636.91C796.227 633.388 795.992 630.255 795.801 626.667L796.904 626.93C794.316 606.656 796.605 586.355 800.893 566.49C800.891 566.25 800.885 566.01 800.886 565.77L800.899 564.57C800.968 548.586 808.708 533.314 814.754 518.801C816.23 513.56 818.168 509.261 820.879 504.544L820.302 496.167C829.996 481.4 846.002 470.082 860.352 460.165C860.418 474.526 847.59 476.718 843.4 490.078C853.513 483.383 863.567 470.602 875.84 468.23C897.815 454.402 921.5 448.037 946.322 441.281Z"/>
	<path fill="#9C008E" d="M1079.17 763.678C1106.57 768.196 1135.11 784.091 1151.57 806.819C1161.64 820.725 1168.68 838.514 1169.82 855.722C1164.68 846.084 1163.31 832.322 1158.01 821.573C1145.27 795.722 1123.49 780.664 1096.86 771.586C1104 779.816 1110.56 785.911 1113.33 796.723L1104.44 800.605C1107.84 803.562 1117.36 809.346 1118.68 813.195C1116.01 814.384 1113.16 813.545 1110.28 813.216C1107.9 811.707 1104.57 808.928 1103.67 806.211L1098.66 804.125C1083.06 793.837 1061.57 789.314 1043.71 784.551C1043.35 784.27 1043.01 783.978 1042.64 783.708C1040.25 781.914 1036.54 781.401 1033.62 780.924C1034.57 779.573 1034.44 779.062 1036.18 778.757C1039.29 778.21 1042.26 779.915 1044.84 781.381C1053.27 786.177 1077.23 779.724 1091.04 791.006C1095.3 792.956 1101.13 792.905 1105.76 793.347C1099.92 790.874 1094.55 788.849 1090.52 783.696C1096.13 786.264 1101.74 789.101 1107.67 790.837C1099.52 779.967 1087.81 773.883 1079.17 763.678Z"/>
	<path fill="#B059FE" d="M1150.9 941.412C1147.35 961.078 1137.62 980.736 1125.01 996.117C1124.17 997.145 1120.44 1000.94 1120.86 1001.92L1136.98 988.018L1137.06 988.525C1134.19 991.616 1128.1 996.753 1127.36 1000.89C1110.57 1018.1 1090.15 1030.31 1067.62 1038.39C1062.55 1037.78 1058.84 1040.65 1054.09 1040.62C1055.85 1038.87 1057.65 1037.23 1059.53 1035.62C1061.41 1033.96 1064.41 1032.86 1066.67 1031.71C1084.86 1024.84 1099.3 1013.52 1111.96 999.047C1106.27 1002.55 1100.31 1006.78 1094.08 1009.19C1093.64 1009.36 1093.19 1009.51 1092.75 1009.69C1087.7 1011.64 1083.15 1010.91 1077.88 1010.39C1091.59 1000.79 1103.14 990.554 1114.5 978.306C1115.11 978.293 1115.72 978.286 1116.33 978.229C1133.81 976.594 1140.56 953.854 1150.24 942.198L1150.9 941.412Z"/>
	<path fill="#3A3867" d="M1096.86 771.586C1123.49 780.664 1145.27 795.722 1158.01 821.573C1163.31 832.322 1164.68 846.084 1169.82 855.722Q1170.63 859.013 1171.14 862.362C1175.73 890.829 1173.97 938.051 1156.85 961.758C1163.12 946.44 1168.72 931.652 1170.54 915.035C1174.52 878.699 1168.16 838.107 1144.7 809.097L1140.61 808.82C1139.06 810.653 1138.78 811.588 1139.01 814.028C1139.48 819.028 1142.46 824.274 1141.96 829.358L1140.81 829.934C1141.16 832.646 1141.58 833.762 1140.49 836.319C1136.81 838.532 1134.09 837.666 1130.01 836.797C1127.61 832.982 1124.97 829.294 1123.14 825.164C1120.11 820.411 1114.63 816.767 1110.28 813.216C1113.16 813.545 1116.01 814.384 1118.68 813.195C1117.36 809.346 1107.84 803.562 1104.44 800.605L1113.33 796.723C1110.56 785.911 1104 779.816 1096.86 771.586Z"/>
	<path fill="#CF00B8" d="M1113.33 796.723Q1125.59 808.734 1136.4 822.062C1135.91 814.066 1134.72 806.671 1132.3 799.028C1136.74 802.017 1141.33 804.864 1144.7 809.097L1140.61 808.82C1139.06 810.653 1138.78 811.588 1139.01 814.028C1139.48 819.028 1142.46 824.274 1141.96 829.358L1140.81 829.934C1141.16 832.646 1141.58 833.762 1140.49 836.319C1136.81 838.532 1134.09 837.666 1130.01 836.797C1127.61 832.982 1124.97 829.294 1123.14 825.164C1120.11 820.411 1114.63 816.767 1110.28 813.216C1113.16 813.545 1116.01 814.384 1118.68 813.195C1117.36 809.346 1107.84 803.562 1104.44 800.605L1113.33 796.723Z"/>
	<defs>
		<linearGradient id="gradient_5" gradientUnits="userSpaceOnUse" x1="945.94611" y1="788.16235" x2="980.75916" y2="724.89197">
			<stop offset="0" stop-color="#3D003E"/>
			<stop offset="1" stop-color="#6C0062"/>
		</linearGradient>
	</defs>
	<path fill="url(#gradient_5)" d="M840.209 713.333C842.68 714.825 845.384 716.226 847.638 718.028C849.772 719.488 851.863 721.215 854.306 722.08C873.854 732.706 893.348 740.929 915 746.315C951.77 755.463 1065.41 765.222 1090.52 783.696C1094.55 788.849 1099.92 790.874 1105.76 793.347C1101.13 792.905 1095.3 792.956 1091.04 791.006C1077.23 779.724 1053.27 786.177 1044.84 781.381C1042.26 779.915 1039.29 778.21 1036.18 778.757C1034.44 779.062 1034.57 779.573 1033.62 780.924C1036.54 781.401 1040.25 781.914 1042.64 783.708C1043.01 783.978 1043.35 784.27 1043.71 784.551C1038.54 784.01 1033.24 782.58 1028.14 781.544Q1015.12 779.388 1002.16 776.915C982.186 774.723 961.976 770.643 942.184 767.051C915.357 762.808 852.319 747.869 834.741 726.541C833.108 722.755 831.16 720.317 828.418 717.309C830.119 717.643 831.789 717.921 833.512 718.132C833.79 717.526 834.21 716.577 834.535 716.027C836.001 713.543 837.555 713.867 840.209 713.333Z"/>
	<path fill="#430141" d="M942.184 767.051C942.076 764.632 941.57 762.403 942.738 760.241C958.109 759.628 983.911 767.997 1000.68 770.141C1005.35 770.872 1029.72 773.426 1032.09 775.285L1032.41 777.291L1034.07 776.992L1032.72 774.985L1035.51 776.471C1034.69 778.73 1030.32 780.223 1028.14 781.544Q1015.12 779.388 1002.16 776.915C982.186 774.723 961.976 770.643 942.184 767.051Z"/>
	<path fill="#B059FE" d="M820.302 496.167C829.996 481.4 846.002 470.082 860.352 460.165C860.418 474.526 847.59 476.718 843.4 490.078C853.513 483.383 863.567 470.602 875.84 468.23C882.011 469.295 887.562 468.148 893.636 466.994C883.742 474.52 874.58 484.034 864.397 490.879L854.02 503.195C853.855 503.595 853.694 503.998 853.524 504.396C849.392 514.06 841.345 523.703 835.879 532.845C814.354 568.837 803.379 606.559 818.964 647.477C832.108 681.985 858.491 706.883 891.911 721.606C903.174 726.568 914.908 730.619 926.51 734.715C918.469 733.916 910.579 732.787 902.677 731.077C890.448 728.43 865.791 719.164 854.306 722.08C851.863 721.215 849.772 719.488 847.638 718.028C845.384 716.226 842.68 714.825 840.209 713.333C837.555 713.867 836.001 713.543 834.535 716.027C834.21 716.577 833.79 717.526 833.512 718.132C831.789 717.921 830.119 717.643 828.418 717.309C831.16 720.317 833.108 722.755 834.741 726.541C829.503 723.721 825.212 719.58 820.798 715.651C812.138 703.163 803.257 692.255 796.112 678.684C795.677 675.811 795.071 672.736 795.346 669.83C795.58 667.354 796.505 665.835 798.389 664.207C801.763 664.088 802.006 664.691 804.64 666.616C800.697 656.836 797.045 647.378 795.294 636.91C796.227 633.388 795.992 630.255 795.801 626.667L796.904 626.93C794.316 606.656 796.605 586.355 800.893 566.49C800.891 566.25 800.885 566.01 800.886 565.77L800.899 564.57C800.968 548.586 808.708 533.314 814.754 518.801C816.23 513.56 818.168 509.261 820.879 504.544L820.302 496.167Z"/>
	<path fill="#3A3867" d="M831.63 507.611C843.243 491.592 856.083 485.67 874.168 479.081C870.697 482.897 867.38 486.666 864.397 490.879L854.02 503.195L852.678 502.615C853.092 500.974 853.341 499.539 853.404 497.848L852.033 496.995C845.139 497.332 837.3 503.839 831.63 507.611Z"/>
	<path fill="#7940FF" d="M820.302 496.167C829.996 481.4 846.002 470.082 860.352 460.165C860.418 474.526 847.59 476.718 843.4 490.078L841.683 492.429L840.467 492.223C841.069 486.333 843.719 483.857 846.553 479.099C835.645 486.297 829.172 494.675 820.879 504.544L820.302 496.167Z"/>
	<path fill="#7940FF" d="M819.731 659.676C828.437 666.458 838.976 687.077 850.299 697.727C862.871 709.55 878.733 714.771 891.525 725.575C891.731 725.749 891.942 725.916 892.15 726.086C881.748 723.578 856.818 713.414 847.638 718.028C845.384 716.226 842.68 714.825 840.209 713.333C837.638 711.354 835.269 708.843 832.875 706.637C830.399 704.639 828.316 701.968 826.191 699.601L827.263 698.392C831.803 697.588 836.325 701.113 840.737 702.117C842.817 702.591 843.355 703.002 845.123 701.86C843.743 696.504 838.086 690.684 835.133 685.753C828.556 680.597 823.228 667.35 819.731 659.676Z"/>
	<path fill="#3A3867" d="M835.133 685.753C845.649 695.139 854.952 705.755 865.608 715.063C854.774 712.031 843.931 708.752 832.875 706.637C830.399 704.639 828.316 701.968 826.191 699.601L827.263 698.392C831.803 697.588 836.325 701.113 840.737 702.117C842.817 702.591 843.355 703.002 845.123 701.86C843.743 696.504 838.086 690.684 835.133 685.753Z"/>
	<path fill="#CF00B8" d="M796.112 678.684C795.677 675.811 795.071 672.736 795.346 669.83C795.58 667.354 796.505 665.835 798.389 664.207C801.763 664.088 802.006 664.691 804.64 666.616C807.894 674.217 819.269 695.794 826.191 699.601C828.316 701.968 830.399 704.639 832.875 706.637C835.269 708.843 837.638 711.354 840.209 713.333C837.555 713.867 836.001 713.543 834.535 716.027C834.21 716.577 833.79 717.526 833.512 718.132C831.789 717.921 830.119 717.643 828.418 717.309C831.16 720.317 833.108 722.755 834.741 726.541C829.503 723.721 825.212 719.58 820.798 715.651C812.138 703.163 803.257 692.255 796.112 678.684Z"/>
	<path fill="#9C008E" d="M826.191 699.601C828.316 701.968 830.399 704.639 832.875 706.637C835.269 708.843 837.638 711.354 840.209 713.333C837.555 713.867 836.001 713.543 834.535 716.027C834.21 716.577 833.79 717.526 833.512 718.132C831.789 717.921 830.119 717.643 828.418 717.309C825.035 714.61 822.005 709.435 819.343 705.925C822.173 703.993 824.294 702.554 826.191 699.601Z"/>
	<path fill="#FEFEFE" d="M800.893 566.49C807.725 546.749 815.312 531.389 833.291 519.727C826.304 534.275 815.334 552.243 814.157 568.413C807.882 598.709 806.395 627.282 817.29 656.97C821.173 667.551 826.89 677.724 830.174 688.437C811.447 675.865 803.78 663.826 799.414 641.631Q797.961 634.314 796.904 626.93C794.316 606.656 796.605 586.355 800.893 566.49Z"/>
</svg>
